<svg xmlns="http://www.w3.org/2000/svg" viewBox="0 0 135.74 135.41">
  <defs>
    <style>
      .cls-1 {
        fill: #fff;
      }
    </style>
  </defs>
  <title>skull</title>
  <g id="Laag_2" data-name="Laag 2">
    <g id="Laag_1-2" data-name="Laag 1">
      <path class="cls-1" d="M133.92,118c-1.73-1.73-5.15-2.37-7.85-1.72L97.15,87.36a40,40,0,0,0,6.52-45.28l22.81-22.81c2.56.39,5.53-.29,7.11-1.86a6.23,6.23,0,0,0-5-10.6,6.22,6.22,0,0,0-10.59-5c-1.73,1.74-2.37,5.15-1.72,7.85l-21.1,21.1a40,40,0,0,0-54.52.09L19.46,9.67c.66-2.7,0-6.11-1.72-7.85a6.22,6.22,0,0,0-10.59,5,6.23,6.23,0,0,0-5,10.6c1.58,1.57,4.55,2.25,7.1,1.86L32.19,42.2a39.93,39.93,0,0,0,6.5,45.06l-29,29c-2.7-.65-6.11,0-7.85,1.72a6.22,6.22,0,0,0,5,10.59,6.22,6.22,0,0,0,10.59,5C19,132,19.66,129,19.27,126.48L48.92,96.83v9.26s0,0,0,0h0V122.4h5.44V106.11H59.8V122.4h5.44V106.11h5.44V122.4h5.44V106.11h5.44V122.4H87V106.11h0l0,0V97l29.47,29.47c-.38,2.56.29,5.53,1.87,7.11a6.22,6.22,0,0,0,10.59-5,6.22,6.22,0,0,0,5-10.59ZM71.57,85.25l-3.61,7-3.61-7L68,81.64ZM89.26,67.89a9.76,9.76,0,1,1-3.74-7.66A9.7,9.7,0,0,1,89.26,67.89Zm-42.59,0a9.76,9.76,0,1,1,3.74,7.65A9.71,9.71,0,0,1,46.67,67.89Z"/>
    </g>
  </g>
</svg>
